PathFileType	4	(X/Y/Z)	Patient4_TMGait_0pt4_03_right_07.trc.trc
DataRate	CameraRate	NumFrames	NumMarkers	Units	OrigDataRate	OrigDataStartFrame	OrigNumFrames
76.923076923077	76.923076923077	6	33	mm	76.923076923077	1	       141
Frame#	Time	Sacral			L.Shoulder			Chest			R.Shoulder			Neck			R.ASIS			L.ASIS			R.Thigh.Superior			R.Thigh.Lateral			R.Thigh.Inferior			R.Patella			L.Thigh.Superior			L.Thigh.Lateral			L.Thigh.Inferior			L.Patella			L.Shank.Superior			L.Shank.Lateral			L.Shank.Inferior			R.Shank.Superior			R.Shank.Lateral			R.Shank.Inferior			R.Heel			R.Midfoot.Superior			R.Midfoot.Lateral			R.Toe			L.Heel			L.Midfoot.Lateral			L.Midfoot.Superior			L.Toe			L.Elbow			L.Wrist			R.Elbow			R.Wrist			
		X1	Y1	Z1	X2	Y2	Z2	X3	Y3	Z3	X4	Y4	Z4	X5	Y5	Z5	X6	Y6	Z6	X7	Y7	Z7	X8	Y8	Z8	X9	Y9	Z9	X10	Y10	Z10	X11	Y11	Z11	X12	Y12	Z12	X13	Y13	Z13	X14	Y14	Z14	X15	Y15	Z15	X16	Y16	Z16	X17	Y17	Z17	X18	Y18	Z18	X19	Y19	Z19	X20	Y20	Z20	X21	Y21	Z21	X22	Y22	Z22	X23	Y23	Z23	X24	Y24	Z24	X25	Y25	Z25	X26	Y26	Z26	X27	Y27	Z27	X28	Y28	Z28	X29	Y29	Z29	X30	Y30	Z30	X31	Y31	Z31	X32	Y32	Z32	X33	Y33	Z33	

1	8.110000000000	796.830886021382	1003.038666721673	445.447900406729	959.862483252059	1430.485754960768	238.555284969167	1071.114358535817	1370.003118420424	397.604006534039	992.665907098207	1447.168718584606	572.656417989676	958.100970449211	1498.312821275312	392.186378672916	1031.765201619709	951.496648092829	554.495761065432	1008.865408839409	967.425915935075	280.645862146251	1120.731979318641	784.585140002625	525.601782235742	1088.678583285695	663.407381226141	606.229938901950	1178.847512368646	627.130239941112	527.036810697248	1203.807274963751	516.851978483895	551.600483616340	1064.484572206623	755.375934675462	307.666711106487	976.307123907537	638.107015740532	250.901399318696	1062.006553183225	562.413159773755	312.729085676306	1062.263632277147	494.471938827054	323.375402000898	1039.887671581761	421.515166889906	314.410431604481	954.148486967757	303.570149087070	264.508268903797	1009.621686035144	195.397445053393	337.447180030784	1132.716228219314	437.448477694485	563.770006757055	1017.191101014160	392.986327106016	632.395241003694	1005.837232402826	281.488674823324	587.081446104378	808.537042090945	214.899675762566	573.873629568353	979.924024525158	155.142325381045	603.814513093039	871.495049694124	151.583380028286	640.900438445952	1044.845705112891	39.498348288204	619.768870990547	886.461428398944	38.082700121605	381.705180710863	958.673639947678	34.549386174418	299.119444389413	1040.636030215448	97.916647338416	325.177446588047	1169.474864446929	49.967574419141	294.097267910144	965.612209215211	1082.777879217072	108.096997966084	1113.832591129446	864.543583450222	105.207968581912	962.105453355324	1101.006630073203	700.007307289605	1068.507947384988	861.548167955042	688.539091209366	
2	8.123000000000	795.808138398272	1003.628610271105	442.634559603175	962.268731103445	1431.162631309032	237.611388541117	1071.318395630942	1370.218190073928	397.951458392098	990.847781459861	1447.308034652995	572.076853531234	958.403175031008	1498.750980817682	391.364216063173	1029.727590544469	952.298803810680	554.202821239512	1009.362837853608	967.536649514317	280.124495180945	1119.700460448539	786.711555643404	525.718952541799	1088.774032408132	665.679628208538	607.090179159167	1178.920585173512	629.663179785797	527.761600998898	1205.291512368160	520.957456272646	553.077529642441	1062.792408868506	754.799507117061	308.405661067887	974.210557184795	638.209715487323	250.103130179228	1058.566019475916	561.832555318971	312.707626402939	1058.082326906712	493.970223596650	323.314533092366	1035.513099580121	421.153299355012	314.263119849079	949.653233933740	303.443263214097	264.058168077246	1004.472795962970	195.206648285115	337.365287883723	1137.492519346867	439.747994423168	565.245811565984	1024.320739594394	389.893221814877	633.340851304374	1018.864147325587	278.234975275465	588.339576871127	825.908337982594	201.716260433879	574.215342465148	999.322779497418	151.145283867061	605.362942566266	891.432322804649	142.033762127601	641.762036570348	1069.823312838287	39.558497164151	621.961627044944	880.897165835627	38.066015851351	381.670727392109	953.121938574391	34.520482505369	299.096535061943	1035.121525553961	97.863578028947	325.219021328950	1163.947512019535	49.935582035881	294.139075790213	969.788934556443	1084.047578946750	105.988478573886	1125.547125691239	871.684372054110	104.897189663958	954.142264606743	1102.080209358119	699.098885127626	1049.119140489767	858.740257562370	692.723558280357	
3	8.136000000000	794.821602685894	1004.196717689303	439.854575888427	964.685766556904	1431.795368065877	236.708058977606	1071.541752979340	1370.402025838046	398.327777459102	989.065064696348	1447.425812068241	571.520903666868	958.724921376798	1499.158045128926	390.575244648299	1027.704124796489	953.040475850636	553.935023535707	1009.872441832573	967.632043312733	279.632805234943	1118.586166773943	788.673521329259	525.883862148095	1088.670088668181	667.792933068529	607.966421049248	1178.754098266313	631.972185627070	528.504144622118	1206.501840401906	524.899439327005	554.551503086821	1061.128237900411	754.220205887930	309.135097296667	972.147316735307	638.298599361045	249.307194782802	1055.167316775546	561.249806074192	312.683662576378	1053.953281168266	493.466025791040	323.241523076836	1031.194230147504	420.788619197449	314.104880797053	945.204566705002	303.310484420193	263.593882186052	999.369715577252	195.011065205963	337.277352122002	1142.064420447803	441.930453002419	566.748575480600	1031.399949076475	386.656419191427	634.367938869698	1031.931398865132	274.915942413947	589.691057891661	843.566256846308	188.385844445894	574.691147883096	1018.888040286960	147.167828167658	607.037837461466	911.628586794485	132.466476500630	642.782919763920	1094.962156854030	39.795878107587	624.345255898843	875.377208474057	38.049990223141	381.637436670799	947.613199439488	34.490862892657	299.072243155619	1029.651821812338	97.805313938332	325.259655962696	1158.465444102675	49.890731312244	294.182580675277	973.894620646813	1085.264026451421	103.946730467853	1137.110822395813	878.805791698317	104.625778303148	946.264807075131	1103.144392458318	698.227476045725	1030.031582332747	856.118827458367	696.815413626959	
4	8.149000000000	793.915822315190	1004.717272503303	437.158434249381	967.114637418916	1432.345067947462	235.892118275657	1071.804691467336	1370.526257649018	398.763935826481	987.363449949474	1447.503635888346	571.019933306460	959.085231759845	1499.506002618270	389.859731985658	1025.723896804648	953.664298777796	553.718997831578	1010.415338405491	967.702081464441	279.200966299716	1117.297071922203	790.289416053340	526.145565735162	1088.156420758690	669.588534727464	608.880890361672	1178.113471125168	633.834942058954	529.289530550849	1207.159245737516	528.502508718422	556.011931647431	1059.523755207252	753.634364396851	309.845130426346	970.145855605516	638.362343128555	248.526736267315	1051.846579262250	560.662655682114	312.660205402115	1049.921374755308	492.957457929057	323.152685499864	1026.976105466487	420.418163236407	313.934322565211	940.838009507087	303.169693971457	263.111520640221	994.348885634033	194.807855809666	337.178829402207	1146.211506840906	443.893258470995	568.293870881248	1038.360657462503	383.186440988240	635.547768555006	1045.014454567656	271.537975486726	591.199363969947	861.723395780741	174.908983819683	575.410894192976	1038.687700638849	143.313726787102	608.917772801063	932.253745015468	122.975885692075	644.077510909484	1120.288596761255	40.447195754952	627.024019902007	869.935572362817	38.036135842914	381.605746512930	942.179687938132	34.460868281018	299.045789880770	1024.261002995185	97.736995958434	325.298943390680	1153.062894224791	49.820460531554	294.228091911271	977.871890665695	1086.373807737981	102.056102125479	1148.374167974666	885.895957391092	104.444609962989	938.554895313541	1104.205585873094	697.431330967398	1011.572338571413	853.861374774172	700.718684888937	
5	8.162000000000	793.124759413643	1005.174230774739	434.583516908987	969.557876965353	1432.781118839671	235.204641105872	1072.125799850511	1370.568161025470	399.287587118667	985.782872503349	1447.527557733217	570.602712479963	959.501185848373	1499.773732972055	389.252930228078	1023.813953246053	954.123856609463	553.578220494944	1011.015200299463	967.742126130734	278.852613723132	1115.744010850748	791.397155951583	526.547332141048	1087.037099215508	670.930889189923	609.851312050364	1176.791296735892	635.063273140523	530.143743845342	1207.021672742459	531.618264040623	557.443715838125	1058.001148382238	753.036061622406	310.523576084265	968.222140239264	638.392151839765	247.775647975685	1048.624758544616	560.067187190040	312.640798409966	1046.013279815538	492.441689564349	323.048575379222	1022.882918719671	420.037931239413	313.754395069574	936.569468172628	303.020484496939	262.610818937519	989.425144205516	194.593423305301	337.067174908911	1149.748933164102	445.561842056985	569.887641722902	1045.165993273708	379.422145900080	636.942527164194	1058.104585980013	268.137204205273	592.906428831137	880.592362029639	161.323989056720	576.466909932142	1058.798149318706	139.713849860878	611.050545503408	953.483638379557	113.684498960505	645.732953995324	1145.841454652695	41.766077218309	630.053172499262	864.582620229386	38.026268139059	381.575128685107	936.830556977797	34.430859167972	299.016834204518	1018.960438134911	97.654190044445	325.337139500148	1147.750921270881	49.712112890716	294.275393638359	981.691034737014	1087.334514233264	100.389607233875	1159.242123130932	892.965539989198	104.400671086112	931.054780187713	1105.277613474494	696.739215226457	993.980901389466	852.104995726548	704.360235333316	
6	8.175000000000	792.470681054476	1005.561894515037	432.156303590954	972.013774788638	1433.084357399309	234.678402159551	1072.519260684585	1370.513563658743	399.919430604759	984.356297765206	1447.489891709324	570.293927265743	959.984885761130	1499.949096110853	388.783190563009	1022.001169520084	954.388624093659	553.531010325454	1011.695491514061	967.753609584864	278.603323666182	1113.854402722904	791.870638339349	527.121286960845	1085.156615613527	671.721544092344	610.888435550226	1174.635808526314	635.523363721919	531.089927278454	1205.912888302003	534.135966522993	558.826783567585	1056.573552147580	752.418614214722	311.157412561739	966.380974137337	638.383110254086	247.069042239312	1045.510221534306	559.459299154567	312.629848120098	1042.240233307177	491.916067240133	322.934891947759	1018.921531260704	419.644217080837	313.572889198819	932.399509801707	302.864836263726	262.097073760763	984.597695638830	194.364564142464	336.942362714873	1152.540744920051	446.895354246152	571.522587523071	1051.797030946147	375.348488549717	638.593568334201	1071.176903346978	264.784653505393	594.821641074622	900.312578643388	147.737650717170	577.916618793072	1079.245078760989	136.520036837664	613.438878628520	975.425620256606	104.751093803186	647.789910471057	1171.603735390509	43.989233653774	633.420219528096	859.312234826188	38.022479334631	381.544183983315	931.559206000565	34.401335546450	298.985617410430	1013.745761517655	97.553669616538	325.375024608069	1142.524536263906	49.554814404342	294.323611004999	985.346985414968	1088.117818792244	99.005766592447	1169.664745741330	900.034567994172	104.533091039191	923.777168935107	1106.379242330513	696.168883679548	977.417675593853	850.933825387213	707.691217491343	
